<svg width="500" height="500" viewBox="0 0 500 500" fill="none" xmlns="http://www.w3.org/2000/svg">
<rect width="500" height="500" fill="black"/>
<path d="M78.4424 201.627H179.297V228.141H145.459V309H112.28V228.141H78.4424V201.627ZM239.062 201.627H272.314V260.001C272.314 272.257 271.216 281.583 269.019 287.979C266.87 294.376 262.5 299.796 255.908 304.239C249.365 308.683 240.967 310.904 230.713 310.904C219.873 310.904 211.475 309.439 205.518 306.51C199.561 303.58 194.946 299.308 191.675 293.692C188.452 288.028 186.548 281.046 185.962 272.745L217.676 268.424C217.725 273.16 218.14 276.676 218.921 278.971C219.702 281.266 221.021 283.121 222.876 284.537C224.146 285.465 225.952 285.929 228.296 285.929C232.007 285.929 234.717 284.562 236.426 281.827C238.184 279.044 239.062 274.381 239.062 267.838V201.627ZM294.067 201.627H337.72L354.565 266.959L371.338 201.627H414.844V309H387.744V227.115L366.724 309H342.188L321.24 227.115V309H294.067V201.627Z" fill="white"/>
</svg>
